<mxfile host="app.diagrams.net" agent="Mozilla/5.0 (X11; Linux x86_64) AppleWebKit/537.36 (KHTML, like Gecko) Chrome/129.0.0.0 Safari/537.36" version="24.8.0">
  <diagram name="Page-1" id="yRCfAIZUlssIz7Rxb8wV">
    <mxGraphModel dx="1627" dy="2111" grid="0" gridSize="10" guides="1" tooltips="1" connect="1" arrows="1" fold="1" page="0" pageScale="1" pageWidth="850" pageHeight="1100" math="0" shadow="0">
      <root>
        <mxCell id="0" />
        <mxCell id="1" parent="0" />
        <mxCell id="jOOkHBfYNlfagVysiwZ6-3" value="" style="swimlane;startSize=0;" vertex="1" parent="1">
          <mxGeometry x="496" y="-226" width="128" height="67" as="geometry" />
        </mxCell>
        <mxCell id="jOOkHBfYNlfagVysiwZ6-4" value="Client 1" style="text;strokeColor=none;fillColor=none;html=1;align=center;verticalAlign=middle;whiteSpace=wrap;rounded=0;fontSize=16;" vertex="1" parent="jOOkHBfYNlfagVysiwZ6-3">
          <mxGeometry x="34" y="21" width="60" height="30" as="geometry" />
        </mxCell>
        <mxCell id="jOOkHBfYNlfagVysiwZ6-5" value="" style="swimlane;startSize=0;" vertex="1" parent="1">
          <mxGeometry x="130" y="-280" width="128" height="67" as="geometry" />
        </mxCell>
        <mxCell id="jOOkHBfYNlfagVysiwZ6-6" value="Client 2" style="text;strokeColor=none;fillColor=none;html=1;align=center;verticalAlign=middle;whiteSpace=wrap;rounded=0;fontSize=16;" vertex="1" parent="jOOkHBfYNlfagVysiwZ6-5">
          <mxGeometry x="34" y="21" width="60" height="30" as="geometry" />
        </mxCell>
        <mxCell id="jOOkHBfYNlfagVysiwZ6-10" value="ClientMap" style="swimlane;fontStyle=0;childLayout=stackLayout;horizontal=1;startSize=63;horizontalStack=0;resizeParent=1;resizeParentMax=0;resizeLast=0;collapsible=1;marginBottom=0;whiteSpace=wrap;html=1;" vertex="1" parent="1">
          <mxGeometry x="586" y="233" width="261" height="153" as="geometry" />
        </mxCell>
        <mxCell id="jOOkHBfYNlfagVysiwZ6-11" value="Client fd 1 : ClientConnection" style="text;strokeColor=none;fillColor=none;align=left;verticalAlign=middle;spacingLeft=4;spacingRight=4;overflow=hidden;points=[[0,0.5],[1,0.5]];portConstraint=eastwest;rotatable=0;whiteSpace=wrap;html=1;" vertex="1" parent="jOOkHBfYNlfagVysiwZ6-10">
          <mxGeometry y="63" width="261" height="30" as="geometry" />
        </mxCell>
        <mxCell id="jOOkHBfYNlfagVysiwZ6-12" value="Client fd 2 : ClientConnection" style="text;strokeColor=none;fillColor=none;align=left;verticalAlign=middle;spacingLeft=4;spacingRight=4;overflow=hidden;points=[[0,0.5],[1,0.5]];portConstraint=eastwest;rotatable=0;whiteSpace=wrap;html=1;" vertex="1" parent="jOOkHBfYNlfagVysiwZ6-10">
          <mxGeometry y="93" width="261" height="30" as="geometry" />
        </mxCell>
        <mxCell id="jOOkHBfYNlfagVysiwZ6-13" value="Client fd 3 : ClientConnection" style="text;strokeColor=none;fillColor=none;align=left;verticalAlign=middle;spacingLeft=4;spacingRight=4;overflow=hidden;points=[[0,0.5],[1,0.5]];portConstraint=eastwest;rotatable=0;whiteSpace=wrap;html=1;" vertex="1" parent="jOOkHBfYNlfagVysiwZ6-10">
          <mxGeometry y="123" width="261" height="30" as="geometry" />
        </mxCell>
        <mxCell id="jOOkHBfYNlfagVysiwZ6-15" value="" style="endArrow=classic;html=1;rounded=0;fontSize=12;startSize=8;endSize=8;curved=1;exitX=0.5;exitY=1;exitDx=0;exitDy=0;" edge="1" parent="1" source="jOOkHBfYNlfagVysiwZ6-5" target="jOOkHBfYNlfagVysiwZ6-31">
          <mxGeometry width="50" height="50" relative="1" as="geometry">
            <mxPoint x="573" y="132" as="sourcePoint" />
            <mxPoint x="392" y="156" as="targetPoint" />
          </mxGeometry>
        </mxCell>
        <mxCell id="jOOkHBfYNlfagVysiwZ6-16" value="" style="endArrow=classic;html=1;rounded=0;fontSize=12;startSize=8;endSize=8;curved=1;entryX=0.687;entryY=0.006;entryDx=0;entryDy=0;entryPerimeter=0;" edge="1" parent="1" target="jOOkHBfYNlfagVysiwZ6-31">
          <mxGeometry width="50" height="50" relative="1" as="geometry">
            <mxPoint x="468" y="-165" as="sourcePoint" />
            <mxPoint x="240" y="119" as="targetPoint" />
          </mxGeometry>
        </mxCell>
        <mxCell id="jOOkHBfYNlfagVysiwZ6-18" value="" style="endArrow=classic;html=1;rounded=0;fontSize=12;startSize=8;endSize=8;curved=1;entryX=0.25;entryY=0;entryDx=0;entryDy=0;exitX=0.432;exitY=0.995;exitDx=0;exitDy=0;exitPerimeter=0;" edge="1" parent="1" source="jOOkHBfYNlfagVysiwZ6-35" target="jOOkHBfYNlfagVysiwZ6-31">
          <mxGeometry width="50" height="50" relative="1" as="geometry">
            <mxPoint x="588" y="403" as="sourcePoint" />
            <mxPoint x="389" y="388" as="targetPoint" />
          </mxGeometry>
        </mxCell>
        <mxCell id="jOOkHBfYNlfagVysiwZ6-31" value="" style="rounded=1;whiteSpace=wrap;html=1;" vertex="1" parent="1">
          <mxGeometry x="6" y="-58" width="345" height="106" as="geometry" />
        </mxCell>
        <mxCell id="jOOkHBfYNlfagVysiwZ6-35" value="" style="swimlane;startSize=0;" vertex="1" parent="1">
          <mxGeometry x="-171" y="-256" width="128" height="67" as="geometry" />
        </mxCell>
        <mxCell id="jOOkHBfYNlfagVysiwZ6-36" value="Client 3" style="text;strokeColor=none;fillColor=none;html=1;align=center;verticalAlign=middle;whiteSpace=wrap;rounded=0;fontSize=16;" vertex="1" parent="jOOkHBfYNlfagVysiwZ6-35">
          <mxGeometry x="34" y="21" width="60" height="30" as="geometry" />
        </mxCell>
        <mxCell id="jOOkHBfYNlfagVysiwZ6-39" value="ConnectClientToServer()" style="text;html=1;align=center;verticalAlign=middle;whiteSpace=wrap;rounded=0;fontSize=16;" vertex="1" parent="1">
          <mxGeometry x="148.5" y="-17" width="60" height="30" as="geometry" />
        </mxCell>
        <mxCell id="jOOkHBfYNlfagVysiwZ6-40" value="" style="endArrow=classic;html=1;rounded=0;fontSize=12;startSize=8;endSize=8;curved=1;entryX=0;entryY=0;entryDx=0;entryDy=0;exitX=1;exitY=1;exitDx=0;exitDy=0;" edge="1" parent="1" source="jOOkHBfYNlfagVysiwZ6-31" target="jOOkHBfYNlfagVysiwZ6-10">
          <mxGeometry width="50" height="50" relative="1" as="geometry">
            <mxPoint x="387" y="-14" as="sourcePoint" />
            <mxPoint x="437" y="-64" as="targetPoint" />
          </mxGeometry>
        </mxCell>
        <mxCell id="jOOkHBfYNlfagVysiwZ6-41" value="create Map and HTTPRequest object within it" style="text;html=1;align=center;verticalAlign=middle;whiteSpace=wrap;rounded=0;fontSize=16;" vertex="1" parent="1">
          <mxGeometry x="449" y="65" width="170" height="94" as="geometry" />
        </mxCell>
        <mxCell id="jOOkHBfYNlfagVysiwZ6-42" value="" style="endArrow=classic;html=1;rounded=0;fontSize=12;startSize=8;endSize=8;curved=1;exitX=0.5;exitY=1;exitDx=0;exitDy=0;" edge="1" parent="1" source="jOOkHBfYNlfagVysiwZ6-31">
          <mxGeometry width="50" height="50" relative="1" as="geometry">
            <mxPoint x="33" y="162" as="sourcePoint" />
            <mxPoint x="57" y="159" as="targetPoint" />
          </mxGeometry>
        </mxCell>
        <mxCell id="jOOkHBfYNlfagVysiwZ6-43" value="" style="endArrow=classic;html=1;rounded=0;fontSize=12;startSize=8;endSize=8;curved=1;exitX=0.5;exitY=1;exitDx=0;exitDy=0;" edge="1" parent="1" source="jOOkHBfYNlfagVysiwZ6-31">
          <mxGeometry width="50" height="50" relative="1" as="geometry">
            <mxPoint x="216" y="144" as="sourcePoint" />
            <mxPoint x="274" y="156" as="targetPoint" />
          </mxGeometry>
        </mxCell>
        <mxCell id="jOOkHBfYNlfagVysiwZ6-44" value="" style="rounded=1;whiteSpace=wrap;html=1;" vertex="1" parent="1">
          <mxGeometry x="226" y="160" width="202" height="135" as="geometry" />
        </mxCell>
        <mxCell id="jOOkHBfYNlfagVysiwZ6-45" value="ClientRead()&lt;div&gt;(client -&amp;gt; server)&lt;/div&gt;&lt;div&gt;POLLIN&lt;/div&gt;&lt;div&gt;(client asks for resource)&lt;/div&gt;" style="text;html=1;align=center;verticalAlign=middle;whiteSpace=wrap;rounded=0;fontSize=16;" vertex="1" parent="1">
          <mxGeometry x="232" y="197.5" width="193" height="65.5" as="geometry" />
        </mxCell>
        <mxCell id="jOOkHBfYNlfagVysiwZ6-46" value="" style="rounded=1;whiteSpace=wrap;html=1;" vertex="1" parent="1">
          <mxGeometry x="-62" y="160" width="202" height="143" as="geometry" />
        </mxCell>
        <mxCell id="jOOkHBfYNlfagVysiwZ6-47" value="ClientWrite()&lt;div&gt;&lt;div&gt;&lt;span style=&quot;background-color: initial;&quot;&gt;(server -&amp;gt; client)&lt;/span&gt;&lt;/div&gt;&lt;div&gt;&lt;span style=&quot;background-color: initial;&quot;&gt;POLLOUT&lt;/span&gt;&lt;/div&gt;&lt;div&gt;(client is sending resource)&lt;/div&gt;&lt;/div&gt;" style="text;html=1;align=center;verticalAlign=middle;whiteSpace=wrap;rounded=0;fontSize=16;" vertex="1" parent="1">
          <mxGeometry x="-54" y="197.75" width="194" height="67.5" as="geometry" />
        </mxCell>
        <mxCell id="jOOkHBfYNlfagVysiwZ6-48" value="HTTPRequest Object&lt;div&gt;&lt;br&gt;&lt;div&gt;- Parse client request&lt;/div&gt;&lt;div&gt;- get method type (GET, POST etc)&amp;nbsp;&lt;/div&gt;&lt;div&gt;- get uri (file path)&lt;/div&gt;&lt;/div&gt;" style="rounded=0;whiteSpace=wrap;html=1;" vertex="1" parent="1">
          <mxGeometry x="881" y="450" width="192" height="92" as="geometry" />
        </mxCell>
        <mxCell id="jOOkHBfYNlfagVysiwZ6-49" value="ClientConnection Object&lt;div&gt;-&amp;gt;HTTPRequest&lt;/div&gt;" style="rounded=0;whiteSpace=wrap;html=1;" vertex="1" parent="1">
          <mxGeometry x="897" y="348" width="160" height="60" as="geometry" />
        </mxCell>
        <mxCell id="jOOkHBfYNlfagVysiwZ6-50" value="" style="endArrow=classic;html=1;rounded=0;fontSize=12;startSize=8;endSize=8;curved=1;entryX=0.5;entryY=0;entryDx=0;entryDy=0;exitX=1;exitY=0.5;exitDx=0;exitDy=0;" edge="1" parent="1" source="jOOkHBfYNlfagVysiwZ6-11" target="jOOkHBfYNlfagVysiwZ6-49">
          <mxGeometry width="50" height="50" relative="1" as="geometry">
            <mxPoint x="527" y="453" as="sourcePoint" />
            <mxPoint x="577" y="403" as="targetPoint" />
          </mxGeometry>
        </mxCell>
        <mxCell id="jOOkHBfYNlfagVysiwZ6-51" value="" style="endArrow=classic;html=1;rounded=0;fontSize=12;startSize=8;endSize=8;curved=1;entryX=0.5;entryY=0;entryDx=0;entryDy=0;exitX=0.5;exitY=1;exitDx=0;exitDy=0;" edge="1" parent="1" source="jOOkHBfYNlfagVysiwZ6-49" target="jOOkHBfYNlfagVysiwZ6-48">
          <mxGeometry width="50" height="50" relative="1" as="geometry">
            <mxPoint x="870" y="-66" as="sourcePoint" />
            <mxPoint x="1141" y="362" as="targetPoint" />
          </mxGeometry>
        </mxCell>
        <mxCell id="jOOkHBfYNlfagVysiwZ6-52" value="" style="endArrow=classic;html=1;rounded=0;fontSize=12;startSize=8;endSize=8;curved=1;exitX=0.5;exitY=1;exitDx=0;exitDy=0;entryX=0.5;entryY=0;entryDx=0;entryDy=0;" edge="1" parent="1" source="jOOkHBfYNlfagVysiwZ6-44" target="jOOkHBfYNlfagVysiwZ6-53">
          <mxGeometry width="50" height="50" relative="1" as="geometry">
            <mxPoint x="621" y="59" as="sourcePoint" />
            <mxPoint x="323" y="381" as="targetPoint" />
          </mxGeometry>
        </mxCell>
        <mxCell id="jOOkHBfYNlfagVysiwZ6-53" value="Generate HTTPResponse&lt;div&gt;based on request&lt;/div&gt;" style="rounded=1;whiteSpace=wrap;html=1;" vertex="1" parent="1">
          <mxGeometry x="188" y="401" width="213" height="111" as="geometry" />
        </mxCell>
        <mxCell id="jOOkHBfYNlfagVysiwZ6-56" value="" style="endArrow=classic;html=1;rounded=0;fontSize=12;startSize=8;endSize=8;curved=1;exitX=1;exitY=0.5;exitDx=0;exitDy=0;entryX=0;entryY=0.5;entryDx=0;entryDy=0;" edge="1" parent="1" source="jOOkHBfYNlfagVysiwZ6-53" target="jOOkHBfYNlfagVysiwZ6-11">
          <mxGeometry width="50" height="50" relative="1" as="geometry">
            <mxPoint x="491" y="507" as="sourcePoint" />
            <mxPoint x="541" y="457" as="targetPoint" />
          </mxGeometry>
        </mxCell>
        <mxCell id="jOOkHBfYNlfagVysiwZ6-57" value="get HTTPRequest based on client fd through Map" style="text;html=1;align=center;verticalAlign=middle;whiteSpace=wrap;rounded=0;fontSize=16;" vertex="1" parent="1">
          <mxGeometry x="425" y="444" width="174" height="30" as="geometry" />
        </mxCell>
        <mxCell id="jOOkHBfYNlfagVysiwZ6-58" value="HTTPResponse&lt;div&gt;- reads content of resource requested&amp;nbsp; and places it in string format&lt;/div&gt;" style="rounded=0;whiteSpace=wrap;html=1;" vertex="1" parent="1">
          <mxGeometry x="194" y="587" width="191" height="122" as="geometry" />
        </mxCell>
        <mxCell id="jOOkHBfYNlfagVysiwZ6-59" value="" style="endArrow=classic;html=1;rounded=0;fontSize=12;startSize=8;endSize=8;curved=1;exitX=0.5;exitY=1;exitDx=0;exitDy=0;entryX=0.5;entryY=0;entryDx=0;entryDy=0;" edge="1" parent="1" source="jOOkHBfYNlfagVysiwZ6-53" target="jOOkHBfYNlfagVysiwZ6-58">
          <mxGeometry width="50" height="50" relative="1" as="geometry">
            <mxPoint x="302" y="578" as="sourcePoint" />
            <mxPoint x="352" y="528" as="targetPoint" />
          </mxGeometry>
        </mxCell>
      </root>
    </mxGraphModel>
  </diagram>
</mxfile>
